<?xml version="1.0" encoding="UTF-8" standalone="no"?>
<!-- Created with Inkscape (http://www.inkscape.org/) -->

<svg
   xmlns:dc="http://purl.org/dc/elements/1.1/"
   xmlns:cc="http://creativecommons.org/ns#"
   xmlns:rdf="http://www.w3.org/1999/02/22-rdf-syntax-ns#"
   xmlns:svg="http://www.w3.org/2000/svg"
   xmlns="http://www.w3.org/2000/svg"
   xmlns:sodipodi="http://sodipodi.sourceforge.net/DTD/sodipodi-0.dtd"
   xmlns:inkscape="http://www.inkscape.org/namespaces/inkscape"
   width="7.2677202in"
   height="7.1929102in"
   viewBox="0 0 184.6001 182.70001"
   version="1.1"
   id="svg3060"
   inkscape:version="0.92.4 (5da689c313, 2019-01-14)"
   sodipodi:docname="fav2.svg">
  <defs
     id="defs3054" />
  <sodipodi:namedview
     id="base"
     pagecolor="#ffffff"
     bordercolor="#666666"
     borderopacity="1.0"
     inkscape:pageopacity="0.0"
     inkscape:pageshadow="2"
     inkscape:zoom="0.35"
     inkscape:cx="-155.71429"
     inkscape:cy="560"
     inkscape:document-units="mm"
     inkscape:current-layer="layer1"
     showgrid="false"
     inkscape:window-width="1920"
     inkscape:window-height="1000"
     inkscape:window-x="-11"
     inkscape:window-y="-11"
     inkscape:window-maximized="1"
     units="in" />
  <metadata
     id="metadata3057">
    <rdf:RDF>
      <cc:Work
         rdf:about="">
        <dc:format>image/svg+xml</dc:format>
        <dc:type
           rdf:resource="http://purl.org/dc/dcmitype/StillImage" />
        <dc:title></dc:title>
      </cc:Work>
    </rdf:RDF>
  </metadata>
  <g
     inkscape:label="Layer 1"
     inkscape:groupmode="layer"
     id="layer1"
     transform="translate(0,-114.29967)">
    <path
       style="opacity:1;fill:#ff5555;fill-opacity:1;stroke:none;stroke-width:7.53284645;stroke-miterlimit:4;stroke-dasharray:none;stroke-dashoffset:0;stroke-opacity:1"
       d="m 92.489315,133.50713 c -5.870937,0.23245 -12.814731,16.96787 -30.064638,56.10756 l -24.820534,56.32127 7.83377,17.58773 c 4.310419,9.67369 8.865691,17.25517 10.121093,16.8456 1.255228,-0.40912 9.325174,-16.41959 17.930673,-35.57902 8.605498,-19.15941 16.750903,-35.20459 18.10408,-35.65554 1.352868,-0.45097 4.35009,3.44383 6.656011,8.65679 2.30578,5.21265 4.92984,9.47968 5.83298,9.47968 2.06293,0 16.83569,-32.98083 16.65189,-37.17641 -0.0775,-1.70388 -5.54349,-15.18032 -12.15007,-29.94764 -7.61279,-17.01622 -11.52897,-26.8204 -16.095255,-26.64002 z m -66.329365,5.40171 c -3.778583,5.48229 -16.3909305,23.81278 -22.2911642,33.09813 2.2330869,3.93773 7.5323542,15.04332 13.0698072,27.49884 6.594027,14.83256 12.918101,27.37952 14.054013,27.88223 2.160559,0.95616 11.572214,-16.59547 15.57889,-29.05208 2.127246,-6.6134 1.57106,-8.96348 -6.349334,-26.84953 C 32.086991,153.11549 27.901931,143.98 26.15995,138.90884 Z m 131.89632,0.093 -21.90003,48.95937 c -13.42113,30.00281 -24.28248,56.15513 -24.1348,58.11624 0.38431,5.09921 12.66318,31.06156 16.08718,34.49797 0.66636,-0.48351 0.94065,-0.68651 1.81514,-1.32344 3.47018,-5.88582 13.75956,-27.55231 25.26034,-53.36851 11.27806,-25.31628 21.52173,-46.83119 25.40135,-53.54997 z"
       id="rect2060"
       inkscape:connector-curvature="0"
       inkscape:export-filename="C:\Users\osman\Documents\Projects\Wisual\public\favicon.ico.png"
       inkscape:export-xdpi="96.199997"
       inkscape:export-ydpi="96.199997" />
    <path
       inkscape:connector-curvature="0"
       style="fill:#5fd38d;stroke:none;stroke-width:2.06535268px;stroke-linecap:butt;stroke-linejoin:miter;stroke-opacity:1"
       d="m 26.158244,138.90821 c -3.778728,5.48229 -16.3910755,23.81294 -22.2913091,33.09814 2.2330725,3.93772 7.5323541,15.04347 13.0698071,27.49916 6.594027,14.83224 12.918101,27.37935 14.054013,27.88222 2.16056,0.95615 11.5722,-16.59564 15.57889,-29.05223 2.127232,-6.61325 1.57106,-8.96348 -6.349334,-26.84969 -8.135185,-18.37063 -12.32023,-27.50628 -14.062067,-32.5776 z"
       id="path2076"
       inkscape:export-filename="C:\Users\osman\Documents\Projects\Wisual\public\favicon.ico.png"
       inkscape:export-xdpi="96.199997"
       inkscape:export-ydpi="96.199997" />
    <path
       inkscape:connector-curvature="0"
       style="fill:#55ddff;stroke:none;stroke-width:2.06535268px;stroke-linecap:butt;stroke-linejoin:miter;stroke-opacity:1"
       d="m 158.0544,139.00507 -21.90002,48.95938 c -13.42112,30.00279 -24.28249,56.15513 -24.13481,58.11608 0.38433,5.09922 12.66334,31.06156 16.08719,34.49811 0.66637,-0.48349 0.94066,-0.68651 1.81529,-1.32341 3.47004,-5.88583 13.75941,-27.552 25.26018,-53.36836 11.27824,-25.31628 21.52175,-46.8312 25.40136,-53.54982 z"
       id="path2081"
       inkscape:export-filename="C:\Users\osman\Documents\Projects\Wisual\public\favicon.ico.png"
       inkscape:export-xdpi="96.199997"
       inkscape:export-ydpi="96.199997" />
  </g>
</svg>
