<?xml version="1.0" encoding="UTF-8" standalone="no"?>
<!-- Created with Inkscape (http://www.inkscape.org/) -->

<svg
   xmlns:dc="http://purl.org/dc/elements/1.1/"
   xmlns:cc="http://creativecommons.org/ns#"
   xmlns:rdf="http://www.w3.org/1999/02/22-rdf-syntax-ns#"
   xmlns:svg="http://www.w3.org/2000/svg"
   xmlns="http://www.w3.org/2000/svg"
   xmlns:sodipodi="http://sodipodi.sourceforge.net/DTD/sodipodi-0.dtd"
   xmlns:inkscape="http://www.inkscape.org/namespaces/inkscape"
   width="7.2677202in"
   height="5.6929102in"
   viewBox="0 0 184.6001 144.59993"
   version="1.1"
   id="svg8"
   inkscape:version="0.92.4 (5da689c313, 2019-01-14)"
   sodipodi:docname="icon3.svg">
  <defs
     id="defs2" />
  <sodipodi:namedview
     id="base"
     pagecolor="#ffffff"
     bordercolor="#666666"
     borderopacity="1.0"
     inkscape:pageopacity="0.0"
     inkscape:pageshadow="2"
     inkscape:zoom="0.7718127"
     inkscape:cx="569.70711"
     inkscape:cy="177.07113"
     inkscape:document-units="mm"
     inkscape:current-layer="layer1"
     showgrid="false"
     units="in"
     inkscape:window-width="1920"
     inkscape:window-height="1000"
     inkscape:window-x="-11"
     inkscape:window-y="-11"
     inkscape:window-maximized="1" />
  <metadata
     id="metadata5">
    <rdf:RDF>
      <cc:Work
         rdf:about="">
        <dc:format>image/svg+xml</dc:format>
        <dc:type
           rdf:resource="http://purl.org/dc/dcmitype/StillImage" />
        <dc:title></dc:title>
      </cc:Work>
    </rdf:RDF>
  </metadata>
  <g
     inkscape:label="Layer 1"
     inkscape:groupmode="layer"
     id="layer1"
     transform="translate(0,-152.40011)">
    <path
       inkscape:connector-curvature="0"
       id="path1439"
       d="m 58.601787,272.11869 c -0.90221,-0.39611 -2.025419,-1.26994 -2.496019,-1.9418 -0.958398,-1.36832 -1.119757,-4.42847 -0.341455,-6.47556 0.446491,-1.17436 -0.95435,-4.68198 -10.640923,-26.64406 -10.458477,-23.71219 -11.275122,-25.36759 -13.076919,-26.50795 -2.18774,-1.38462 -3.346148,-4.06691 -2.810206,-6.50704 0.467258,-2.12742 3.05679,-4.2162 5.22695,-4.2162 0.977716,0 2.386186,-0.50557 3.243917,-1.1644 3.255007,-2.50023 27.459308,-24.06935 28.512542,-25.40833 0.733656,-0.93269 1.116445,-2.17207 1.116445,-3.61481 0,-3.16092 2.181678,-5.19463 5.572629,-5.19463 2.209943,0 2.648373,0.22069 4.610739,2.32087 l 2.168573,2.32085 27.13497,4.68082 27.13496,4.68082 1.44146,-1.13384 c 1.73292,-1.36312 5.24222,-1.52117 6.96606,-0.31374 1.42809,1.0003 2.74229,3.43109 2.73855,5.06542 -0.004,1.87416 -1.6288,4.09432 -3.93833,5.38229 -1.87382,1.04503 -2.20216,1.53789 -3.0258,4.54218 -0.50813,1.85346 -3.90429,14.66201 -7.547,28.46344 l -6.62312,25.0935 0.90468,1.90649 c 1.25994,2.65512 0.75625,5.29853 -1.37569,7.2197 -1.56293,1.40841 -1.89308,1.49089 -4.87892,1.21884 -2.95907,-0.26961 -5.04032,0.23056 -27.374525,6.57862 -18.957401,5.38825 -24.572506,7.17974 -26.02862,8.30434 -2.361081,1.82356 -4.522736,2.26282 -6.614948,1.34418 z m 31.475705,-11.88683 c 12.202828,-3.48144 22.600778,-6.45319 23.106558,-6.60388 0.69435,-0.20688 0.91958,-0.83843 0.91958,-2.57852 0,-2.95904 0.75945,-4.58256 2.67217,-5.71241 0.84241,-0.49763 1.53165,-1.20161 1.53165,-1.56438 0,-2.07664 -3.16743,-19.42176 -3.65363,-20.00758 -0.32026,-0.38589 -1.19513,-0.81878 -1.94417,-0.96195 -1.20297,-0.22997 -3.96057,2.2187 -23.630452,20.98313 -12.247705,11.68392 -22.268557,21.43054 -22.268557,21.65915 0,0.42589 0.550619,1.11633 0.890255,1.11633 0.104288,0 10.173758,-2.84845 22.376596,-6.32989 z m -4.599938,-16.5284 C 96.06585,233.58803 105.7742,224.3324 107.05167,223.13545 c 2.2782,-2.13466 2.76308,-3.40869 1.84746,-4.85431 -0.31437,-0.49635 -5.87958,-1.52525 -17.653108,-3.26372 l -17.193998,-2.53886 -2.522301,2.17265 c -1.420735,1.22379 -2.632502,2.76391 -2.774628,3.52648 -0.138786,0.74459 -1.393172,10.60882 -2.787541,21.92051 -2.16827,17.5899 -2.430823,20.6925 -1.813973,21.43576 0.396683,0.47797 1.025278,0.79979 1.396879,0.71514 0.371599,-0.0846 9.338792,-8.4302 19.927094,-18.54564 z m -24.741055,16.60296 c 0.161486,-0.26131 1.496198,-10.21666 2.966024,-22.12301 l 2.672411,-21.64793 -1.807062,-1.6552 c -0.993883,-0.91037 -1.972038,-2.17501 -2.173676,-2.81031 -0.461191,-1.45308 -0.260368,-1.40031 -11.787702,-3.09827 l -9.635678,-1.41932 -2.125513,2.1255 -2.12551,2.12552 10.374831,23.56946 c 5.706157,12.96319 10.593199,23.98327 10.860092,24.48904 0.511197,0.96876 2.282826,1.25183 2.781783,0.44452 z M 121.9858,243.2434 c 0,-0.10843 1.75232,-6.78864 3.89405,-14.84472 2.14173,-8.05611 5.23017,-19.84967 6.86321,-26.20796 1.63304,-6.35828 3.08893,-11.97432 3.23531,-12.48009 0.82669,-2.85636 -1.75546,0.38395 -8.773,11.00912 -5.37274,8.13479 -7.75917,12.18762 -7.50337,12.74282 0.2063,0.44778 0.46935,2.01428 0.58454,3.4811 0.18155,2.31177 0.0163,2.89651 -1.24072,4.3904 l -1.45016,1.72342 1.48006,9.53477 c 0.81404,5.24412 1.59066,9.83035 1.72582,10.19161 0.21875,0.5847 1.18426,0.95935 1.18426,0.45953 z m -12.67367,-28.89173 c 0.66027,-0.79559 -0.26878,-2.14427 -5.17502,-7.51248 l -2.78725,-3.04969 -3.085988,0.15293 c -2.440714,0.12095 -3.404218,-0.0737 -4.607894,-0.93075 -0.83705,-0.59604 -1.766368,-1.08369 -2.065158,-1.08369 -0.829741,0 -15.905568,6.22561 -16.727313,6.90758 -0.396866,0.32939 -0.586016,0.73443 -0.420331,0.90011 0.25856,0.25856 31.032774,5.11322 33.421754,5.2723 0.47038,0.0314 1.12162,-0.26402 1.4472,-0.65631 z m 15.8318,-15.07614 c 7.83374,-11.81726 9.14323,-14.16284 7.90685,-14.16284 -1.16103,0 -29.1398,11.5733 -29.55353,12.22468 -0.2269,0.35724 -0.41618,1.52879 -0.4206,2.60347 -0.007,1.70958 0.52319,2.54374 4.24036,6.67091 2.33663,2.59434 4.46893,4.79049 4.73847,4.88033 0.26953,0.0898 1.53318,0.0804 2.80811,-0.0211 l 2.31806,-0.1843 z m -61.000449,6.64179 c 1.01623,-1.08645 1.766555,-1.36194 3.709279,-1.36194 1.339446,0 2.894365,0.34716 3.455376,0.77151 0.561012,0.42432 1.38809,0.77901 1.837951,0.7882 0.790149,0.0159 15.087609,-5.58064 17.022799,-6.66362 0.795621,-0.44525 2.354577,-3.70576 2.382248,-4.98242 0.0042,-0.20073 -3.658927,-4.45711 -8.140615,-9.4586 l -8.148532,-9.09362 -2.492393,-0.0217 c -1.370816,-0.0119 -3.107606,-0.20611 -3.859533,-0.43153 -1.244668,-0.3731 -2.633338,0.70559 -15.501592,12.04125 -7.773949,6.84808 -14.345939,12.64515 -14.604422,12.88238 -0.55533,0.50966 0.502608,3.32299 1.58848,4.22421 0.972186,0.80683 19.664774,3.57292 20.688815,3.06149 0.433519,-0.21652 1.36148,-1.00656 2.062139,-1.75562 z M 117.2806,188.53699 c 8.18514,-3.31886 15.11851,-6.27073 15.40749,-6.55971 0.28899,-0.28897 0.36676,-0.68405 0.17278,-0.87797 -0.19384,-0.19384 -5.49859,-1.24496 -11.78821,-2.33567 -6.28961,-1.09072 -18.29314,-3.18406 -26.674508,-4.6519 -14.172636,-2.48203 -15.284812,-2.60632 -15.895701,-1.77645 -0.361266,0.49076 -0.656847,1.07371 -0.656847,1.29545 0,0.22174 3.733581,4.49204 8.296846,9.48954 l 8.296851,9.08637 2.690482,0.3309 c 1.479768,0.18192 3.237497,0.71405 3.906067,1.18232 0.66857,0.46829 1.24865,0.85142 1.28908,0.85142 0.0404,0 6.77045,-2.71543 14.9556,-6.0343 z"
       style="fill:#343a40;stroke-width:0.52547771;fill-opacity:1" />
  </g>
</svg>
