<?xml version="1.0" encoding="UTF-8" standalone="no"?>
<!-- Created with Inkscape (http://www.inkscape.org/) -->

<svg
   xmlns:dc="http://purl.org/dc/elements/1.1/"
   xmlns:cc="http://creativecommons.org/ns#"
   xmlns:rdf="http://www.w3.org/1999/02/22-rdf-syntax-ns#"
   xmlns:svg="http://www.w3.org/2000/svg"
   xmlns="http://www.w3.org/2000/svg"
   xmlns:sodipodi="http://sodipodi.sourceforge.net/DTD/sodipodi-0.dtd"
   xmlns:inkscape="http://www.inkscape.org/namespaces/inkscape"
   width="159mm"
   height="40mm"
   viewBox="0 0 159 40"
   version="1.1"
   id="svg2110"
   inkscape:version="0.92.4 (5da689c313, 2019-01-14)"
   sodipodi:docname="logo.svg">
  <defs
     id="defs2104" />
  <sodipodi:namedview
     id="base"
     pagecolor="#ffffff"
     bordercolor="#666666"
     borderopacity="1.0"
     inkscape:pageopacity="0.0"
     inkscape:pageshadow="2"
     inkscape:zoom="1.1821853"
     inkscape:cx="504.28571"
     inkscape:cy="50"
     inkscape:document-units="mm"
     inkscape:current-layer="layer1"
     showgrid="false"
     inkscape:window-width="1920"
     inkscape:window-height="1000"
     inkscape:window-x="-11"
     inkscape:window-y="-11"
     inkscape:window-maximized="1" />
  <metadata
     id="metadata2107">
    <rdf:RDF>
      <cc:Work
         rdf:about="">
        <dc:format>image/svg+xml</dc:format>
        <dc:type
           rdf:resource="http://purl.org/dc/dcmitype/StillImage" />
        <dc:title></dc:title>
      </cc:Work>
    </rdf:RDF>
  </metadata>
  <g
     inkscape:label="Layer 1"
     inkscape:groupmode="layer"
     id="layer1"
     transform="translate(0,-257)">
    <g
       transform="matrix(1.3559902,0,0,1.3559902,-49.068194,-102.70486)"
       id="g2102">
      <path
         d="m 74.48566,270.5582 h 3.58277 v 18.95775 h -3.58277 z"
         style="font-style:normal;font-variant:normal;font-weight:bold;font-stretch:normal;font-size:40px;line-height:1.25;font-family:'Century Gothic';-inkscape-font-specification:'Century Gothic Bold';letter-spacing:0px;word-spacing:0px;fill:#ffffff;fill-opacity:1;stroke:none;stroke-width:0.6598475"
         id="path2016"
         inkscape:connector-curvature="0" />
      <path
         d="m 92.05153,273.13577 -2.66775,2.35842 q -1.40475,-1.95895 -2.86106,-1.95895 -0.70882,0 -1.15988,0.38667 -0.45107,0.37374 -0.45107,0.85054 0,0.47687 0.32219,0.90215 0.43818,0.56707 2.64197,2.43576 2.06202,1.72695 2.5002,2.17802 1.09545,1.10835 1.54652,2.12649 0.46395,1.00521 0.46395,2.20376 0,2.33269 -1.61095,3.85338 -1.61096,1.52075 -4.20137,1.52075 -2.02337,0 -3.53122,-0.99235 -1.49497,-0.99234 -2.56464,-3.11877 l 3.0286,-1.83008 q 1.36608,2.51309 3.14458,2.51309 0.92791,0 1.55941,-0.54127 0.63149,-0.54127 0.63149,-1.25008 0,-0.64441 -0.47684,-1.28882 -0.47685,-0.64434 -2.10069,-1.97175 -3.09303,-2.52603 -3.99517,-3.89211 -0.90213,-1.37895 -0.90213,-2.74503 0,-1.97183 1.49497,-3.37658 1.50785,-1.41768 3.71164,-1.41768 1.41763,0 2.69352,0.65728 1.28876,0.65727 2.78373,2.39716 z"
         style="font-style:normal;font-variant:normal;font-weight:bold;font-stretch:normal;font-size:40px;line-height:1.25;font-family:'Century Gothic';-inkscape-font-specification:'Century Gothic Bold';letter-spacing:0px;word-spacing:0px;fill:#ffffff;fill-opacity:1;stroke:none;stroke-width:0.6598475"
         id="path2018"
         inkscape:connector-curvature="0" />
      <path
         d="m 95.69873,270.5582 h 3.62143 v 12.26908 q 0,1.58515 0.27064,2.24242 0.28353,0.65728 0.91502,1.05681 0.64438,0.38661 1.54652,0.38661 0.95368,0 1.63673,-0.43821 0.69593,-0.43814 0.95369,-1.10834 0.27064,-0.68301 0.27064,-2.59037 v -11.818 h 3.62143 v 11.30247 q 0,2.86103 -0.32219,3.96937 -0.3222,1.10835 -1.23722,2.13936 -0.90213,1.03101 -2.0878,1.53362 -1.18566,0.48974 -2.75795,0.48974 -2.06203,0 -3.59566,-0.94081 -1.52074,-0.95368 -2.17801,-2.3713 -0.65727,-1.43055 -0.65727,-4.81998 z"
         style="font-style:normal;font-variant:normal;font-weight:bold;font-stretch:normal;font-size:40px;line-height:1.25;font-family:'Century Gothic';-inkscape-font-specification:'Century Gothic Bold';letter-spacing:0px;word-spacing:0px;fill:#ffffff;fill-opacity:1;stroke:none;stroke-width:0.6598475"
         id="path2020"
         inkscape:connector-curvature="0" />
      <path
         d="m 118.50986,270.5582 h 3.66009 l 7.29441,18.95775 h -3.7503 l -1.48208,-3.90498 h -7.73259 l -1.54652,3.90498 h -3.7503 z m 1.85582,5.02619 -2.52597,6.50828 h 5.03907 z"
         style="font-style:normal;font-variant:normal;font-weight:bold;font-stretch:normal;font-size:40px;line-height:1.25;font-family:'Century Gothic';-inkscape-font-specification:'Century Gothic Bold';letter-spacing:0px;word-spacing:0px;fill:#ffffff;fill-opacity:1;stroke:none;stroke-width:0.6598475"
         id="path2022"
         inkscape:connector-curvature="0" />
      <path
         d="m 132.27387,270.5582 h 3.60854 v 15.51671 h 5.25816 v 3.44104 h -8.8667 z"
         style="font-style:normal;font-variant:normal;font-weight:bold;font-stretch:normal;font-size:40px;line-height:1.25;font-family:'Century Gothic';-inkscape-font-specification:'Century Gothic Bold';letter-spacing:0px;word-spacing:0px;fill:#ffffff;fill-opacity:1;stroke:none;stroke-width:0.6598475"
         id="path2024"
         inkscape:connector-curvature="0" />
      <path
         inkscape:connector-curvature="0"
         id="rect2060"
         d="m 60.031843,269.39858 c -0.807086,0.032 -1.761665,2.3326 -4.133058,7.71323 l -3.412143,7.74263 1.076936,2.41784 c 0.592564,1.32986 1.218786,2.37211 1.391364,2.31581 0.172576,-0.0563 1.281961,-2.25726 2.464972,-4.89114 1.183011,-2.63389 2.302784,-4.83966 2.48882,-4.90167 0.18603,-0.062 0.598011,0.47345 0.915004,1.19007 0.316996,0.7166 0.677728,1.3032 0.80188,1.3032 0.283597,0 2.314453,-4.53396 2.28918,-5.11073 -0.0103,-0.23424 -0.762076,-2.08688 -1.670302,-4.11697 -1.046544,-2.33927 -1.584919,-3.68708 -2.212653,-3.66227 z m -9.118456,0.74257 c -0.519454,0.75366 -2.253319,3.27361 -3.064441,4.55008 0.307003,0.54133 1.035502,2.06805 1.796739,3.78035 0.906513,2.03906 1.77589,3.76393 1.932052,3.83304 0.297024,0.13143 1.590861,-2.28143 2.14167,-3.99386 0.292444,-0.90917 0.215979,-1.23225 -0.872861,-3.69109 -1.11837,-2.52549 -1.693696,-3.78137 -1.933159,-4.47852 z m 18.132102,0.0133 -3.010648,6.73056 c -1.845039,4.12457 -3.33818,7.71979 -3.31787,7.9894 0.05281,0.701 1.74085,4.2701 2.211543,4.74251 0.09171,-0.0665 0.129235,-0.0943 0.249547,-0.18189 0.47705,-0.80914 1.891561,-3.78767 3.47259,-7.3367 1.550438,-3.48029 2.958643,-6.43801 3.491998,-7.36164 z"
         style="opacity:1;fill:#ff5555;fill-opacity:1;stroke:none;stroke-width:1.03555954;stroke-miterlimit:4;stroke-dasharray:none;stroke-dashoffset:0;stroke-opacity:1" />
      <path
         id="path2076"
         d="m 50.913132,270.14107 c -0.519454,0.75366 -2.25332,3.27362 -3.06444,4.55008 0.307001,0.54134 1.035504,2.06806 1.796739,3.78038 0.906515,2.03904 1.775889,3.76391 1.932051,3.83304 0.297024,0.13143 1.590861,-2.28145 2.14167,-3.99389 0.292444,-0.90914 0.215979,-1.23222 -0.872861,-3.69108 -1.11837,-2.52547 -1.693696,-3.78137 -1.933159,-4.47853 z"
         style="fill:#5fd38d;stroke:none;stroke-width:0.28392929px;stroke-linecap:butt;stroke-linejoin:miter;stroke-opacity:1"
         inkscape:connector-curvature="0" />
      <path
         id="path2081"
         d="m 69.045236,270.15439 -3.01065,6.73057 c -1.845038,4.12456 -3.33818,7.71978 -3.31787,7.98937 0.05281,0.701 1.740853,4.2701 2.211545,4.74253 0.09171,-0.0665 0.129236,-0.0943 0.249546,-0.18191 0.477049,-0.80914 1.89156,-3.78765 3.472589,-7.33668 1.550438,-3.48029 2.958643,-6.43801 3.491998,-7.36163 z"
         style="fill:#55ddff;stroke:none;stroke-width:0.28392929px;stroke-linecap:butt;stroke-linejoin:miter;stroke-opacity:1"
         inkscape:connector-curvature="0" />
    </g>
  </g>
</svg>
