<?xml version="1.0" encoding="UTF-8" standalone="no"?>
<!-- Created with Inkscape (http://www.inkscape.org/) -->

<svg
   xmlns:dc="http://purl.org/dc/elements/1.1/"
   xmlns:cc="http://creativecommons.org/ns#"
   xmlns:rdf="http://www.w3.org/1999/02/22-rdf-syntax-ns#"
   xmlns:svg="http://www.w3.org/2000/svg"
   xmlns="http://www.w3.org/2000/svg"
   xmlns:sodipodi="http://sodipodi.sourceforge.net/DTD/sodipodi-0.dtd"
   xmlns:inkscape="http://www.inkscape.org/namespaces/inkscape"
   width="3.26772in"
   height="2.69291in"
   viewBox="0 0 83.000092 68.39992"
   version="1.1"
   id="svg8"
   inkscape:version="0.92.4 (5da689c313, 2019-01-14)"
   sodipodi:docname="wheel.svg">
  <defs
     id="defs2" />
  <sodipodi:namedview
     id="base"
     pagecolor="#ffffff"
     bordercolor="#666666"
     borderopacity="1.0"
     inkscape:pageopacity="0.0"
     inkscape:pageshadow="2"
     inkscape:zoom="1.1670529"
     inkscape:cx="510.32018"
     inkscape:cy="248.25629"
     inkscape:document-units="mm"
     inkscape:current-layer="layer1"
     showgrid="false"
     units="in"
     inkscape:window-width="1920"
     inkscape:window-height="1000"
     inkscape:window-x="-11"
     inkscape:window-y="-11"
     inkscape:window-maximized="1" />
  <metadata
     id="metadata5">
    <rdf:RDF>
      <cc:Work
         rdf:about="">
        <dc:format>image/svg+xml</dc:format>
        <dc:type
           rdf:resource="http://purl.org/dc/dcmitype/StillImage" />
        <dc:title></dc:title>
      </cc:Work>
    </rdf:RDF>
  </metadata>
  <g
     inkscape:label="Layer 1"
     inkscape:groupmode="layer"
     id="layer1"
     transform="translate(0,-228.59999)">
    <rect
       style="opacity:1;fill:#ffffff;fill-opacity:1;stroke:none;stroke-width:8.34136391;stroke-miterlimit:4;stroke-dasharray:none;stroke-opacity:1"
       id="rect1021"
       width="211.52106"
       height="83.42952"
       x="2.7205276"
       y="17.465748"
       rx="3.2949884"
       inkscape:export-xdpi="96.199997"
       inkscape:export-ydpi="96.199997" />
    <flowRoot
       transform="matrix(0.32959125,0,0,0.32959125,-30.927391,21.889328)"
       style="font-style:normal;font-weight:normal;font-size:40px;line-height:1.25;font-family:sans-serif;letter-spacing:0px;word-spacing:0px;fill:#676767;fill-opacity:1;stroke:none"
       id="flowRoot900"
       xml:space="preserve"><flowRegion
         style="fill:#676767;fill-opacity:1"
         id="flowRegion896"><rect
           style="fill:#676767;fill-opacity:1"
           y="156.74713"
           x="337.828"
           height="80.03215"
           width="325.51538"
           id="rect894" /></flowRegion><flowPara
         style="font-style:normal;font-variant:normal;font-weight:normal;font-stretch:normal;font-family:Ebrima;-inkscape-font-specification:Ebrima;fill:#676767;fill-opacity:1"
         id="flowPara898" /></flowRoot>    <g
       id="g1019"
       inkscape:export-xdpi="96.199997"
       inkscape:export-ydpi="96.199997">
      <path
         style="fill:#dadada;stroke-width:0.18623425"
         d="M 29.754599,82.356078 C 19.892146,81.221092 12.600949,74.428477 10.919527,64.808972 9.3622355,55.899627 14.072454,46.717501 22.288782,42.645688 c 7.120595,-3.528796 15.570614,-2.747358 21.933947,2.028404 11.142696,8.362728 11.142696,25.15206 0,33.514787 -4.091731,3.070891 -9.773684,4.707443 -14.46813,4.167199 z m 6.831711,-1.524783 c 2.287661,-0.595313 4.884371,-1.83876 6.776344,-3.244879 2.035754,-1.512983 2.070273,-1.56419 1.584407,-2.350343 -0.822284,-1.330487 -2.631868,-2.658417 -4.463463,-3.275437 -1.061334,-0.35754 -1.568879,-0.379259 -8.814222,-0.377175 -8.34267,0.0024 -8.728477,0.04051 -10.598133,1.046858 -1.152844,0.620524 -3.142518,2.551506 -3.142518,3.049822 0,1.013379 4.898419,4.064552 7.949095,4.951406 3.317075,0.9643 7.472606,1.041815 10.70849,0.199748 z M 34.031476,69.06096 c 6.720342,-1.750427 9.204065,-10.154675 4.517776,-15.286924 -1.924416,-2.107541 -4.135393,-3.094493 -6.93231,-3.094493 -2.819205,0 -4.922844,0.930019 -6.87635,3.040041 -4.13719,4.468658 -2.936355,11.627011 2.441293,14.552898 1.924249,1.046953 4.651802,1.360928 6.849591,0.788478 z"
         id="path828"
         inkscape:connector-curvature="0" />
      <flowRoot
         transform="matrix(0.32959125,0,0,0.32959125,-55.681773,-7.1701641)"
         style="font-style:normal;font-weight:normal;font-size:40px;line-height:1.25;font-family:sans-serif;letter-spacing:0px;word-spacing:0px;fill:#676767;fill-opacity:1;stroke:none"
         id="flowRoot834"
         xml:space="preserve"><flowRegion
           style="fill:#676767;fill-opacity:1"
           id="flowRegion836"><rect
             style="fill:#676767;fill-opacity:1"
             y="156.74713"
             x="337.828"
             height="91.787918"
             width="437.8483"
             id="rect838" /></flowRegion><flowPara
           style="font-style:normal;font-variant:normal;font-weight:normal;font-stretch:normal;font-family:Ebrima;-inkscape-font-specification:Ebrima;fill:#676767;fill-opacity:1"
           id="flowPara840">happy_birthday_wania</flowPara></flowRoot>      <g
         transform="translate(-20.018761,3.4440879)"
         id="g917">
        <rect
           style="opacity:1;fill:#0095f6;fill-opacity:1;stroke:none;stroke-width:7.61898994;stroke-miterlimit:4;stroke-dasharray:none;stroke-opacity:1"
           id="rect855"
           width="37.77734"
           height="11.623796"
           x="78.460625"
           y="59.465557"
           rx="2.6553192" />
        <flowRoot
           transform="matrix(0.19361687,0,0,0.19361687,21.134762,30.683746)"
           style="font-style:normal;font-weight:normal;font-size:40px;line-height:1.25;font-family:sans-serif;letter-spacing:0px;word-spacing:0px;fill:#ffffff;fill-opacity:1;stroke:none"
           id="flowRoot874"
           xml:space="preserve"><flowRegion
             style="fill:#ffffff;fill-opacity:1"
             id="flowRegion870"><rect
               style="fill:#ffffff;fill-opacity:1"
               y="156.74713"
               x="337.828"
               height="80.03215"
               width="325.51538"
               id="rect868" /></flowRegion><flowPara
             style="font-style:normal;font-variant:normal;font-weight:normal;font-stretch:normal;font-family:Ebrima;-inkscape-font-specification:Ebrima;letter-spacing:-1.25505292px;fill:#ffffff;fill-opacity:1"
             id="flowPara872">Follow</flowPara></flowRoot>      </g>
      <g
         transform="translate(24.23223,-10.59334)"
         id="g924">
        <rect
           rx="3.2950001"
           y="73.672424"
           x="78.568253"
           height="11.623796"
           width="82.442856"
           id="rect910"
           style="opacity:1;fill:#979797;fill-opacity:1;stroke:none;stroke-width:11.25533009;stroke-miterlimit:4;stroke-dasharray:none;stroke-opacity:1" />
        <flowRoot
           xml:space="preserve"
           id="flowRoot884"
           style="font-style:normal;font-weight:normal;font-size:40px;line-height:1.25;font-family:sans-serif;letter-spacing:0px;word-spacing:0px;fill:#ffffff;fill-opacity:1;stroke:none"
           transform="matrix(0.16552738,0,0,0.16552738,16.12403,49.169041)"><flowRegion
             id="flowRegion880"
             style="fill:#ffffff;fill-opacity:1"><rect
               id="rect878"
               width="582.18036"
               height="76.440811"
               x="337.828"
               y="156.74713"
               style="fill:#ffffff;fill-opacity:1" /></flowRegion><flowPara
             id="flowPara882"
             style="font-style:normal;font-variant:normal;font-weight:normal;font-stretch:normal;font-family:Ebrima;-inkscape-font-specification:Ebrima;text-align:center;letter-spacing:-1.25505292px;word-spacing:-2.51441598px;text-anchor:middle;fill:#ffffff;fill-opacity:1">temporarily disable this too </flowPara></flowRoot>      </g>
      <flowRoot
         xml:space="preserve"
         id="flowRoot932"
         style="font-style:normal;font-weight:normal;font-size:40px;line-height:1.25;font-family:sans-serif;letter-spacing:0px;word-spacing:0px;fill:#b3b3b3;fill-opacity:1;stroke:none"
         transform="matrix(0.2503843,0,0,0.2503843,102.01191,-5.1100606)"><flowRegion
           id="flowRegion928"
           style="fill:#b3b3b3;fill-opacity:1"><rect
             id="rect926"
             width="437.8483"
             height="91.787918"
             x="337.828"
             y="156.74713"
             style="fill:#b3b3b3;fill-opacity:1" /></flowRegion><flowPara
           id="flowPara930"
           style="font-style:normal;font-variant:normal;font-weight:normal;font-stretch:normal;font-family:Ebrima;-inkscape-font-specification:Ebrima;fill:#b3b3b3;fill-opacity:1">19y</flowPara></flowRoot>      <flowRoot
         transform="matrix(0.48062912,0,0,0.48062912,20.617865,-50.066068)"
         style="font-style:normal;font-weight:normal;font-size:40px;line-height:1.25;font-family:sans-serif;letter-spacing:0px;word-spacing:0px;fill:#b3b3b3;fill-opacity:1;stroke:none"
         id="flowRoot940"
         xml:space="preserve"><flowRegion
           style="fill:#b3b3b3;fill-opacity:1"
           id="flowRegion936"><rect
             style="fill:#b3b3b3;fill-opacity:1"
             y="156.74713"
             x="337.828"
             height="91.787918"
             width="437.8483"
             id="rect934" /></flowRegion><flowPara
           style="font-style:normal;font-variant:normal;font-weight:normal;font-stretch:normal;font-family:Ebrima;-inkscape-font-specification:Ebrima;fill:#b3b3b3;fill-opacity:1"
           id="flowPara938">.</flowPara></flowRoot>    </g>
    <g
       id="g1062"
       transform="matrix(0.57582087,0,0,0.57582087,-57.521427,132.84718)">
      <path
         style="fill:#5fd38d;fill-opacity:1;stroke-width:0.26458335"
         d="m 166.74144,282.31394 c -2.73157,-0.33794 -5.8876,-1.00637 -6.19285,-1.31163 -0.29868,-0.29867 5.22696,-21.15975 5.6787,-21.43894 0.15964,-0.0987 0.84664,-0.0625 1.52667,0.0804 1.58096,0.33221 8.526,0.32878 10.14578,-0.005 0.68004,-0.14014 1.36973,-0.17241 1.53267,-0.0717 0.49366,0.3051 5.96933,21.13861 5.64191,21.46603 -0.15482,0.15481 -1.57484,0.51337 -3.15562,0.79679 -3.337,0.59831 -12.01626,0.87511 -15.17726,0.48405 z m -14.50746,-3.79796 c -3.94885,-1.61098 -8.0372,-3.86357 -11.46977,-6.31959 -2.88367,-2.06329 -5.24361,-4.09069 -5.24361,-4.50473 0,-0.17444 3.49503,-3.81069 7.76674,-8.08055 l 7.76674,-7.76339 2.35357,1.74769 c 2.12552,1.57834 5.45276,3.42164 8.10826,4.49199 0.75235,0.30325 0.98888,0.54709 0.97849,1.00873 -0.008,0.33485 -1.23565,5.13319 -2.72914,10.66298 -2.59301,9.60084 -2.7445,10.05736 -3.35974,10.12501 -0.35436,0.039 -2.23155,-0.5767 -4.17154,-1.36814 z m 36.35301,1.13112 c -0.43325,-1.27846 -5.44139,-20.31979 -5.44139,-20.68857 0,-0.25055 0.32742,-0.58927 0.72761,-0.75271 2.63038,-1.07425 6.34227,-3.08129 8.21911,-4.44412 1.20991,-0.87856 2.34177,-1.59738 2.51525,-1.59738 0.17348,0 3.76678,3.45291 7.98513,7.67314 6.59256,6.5955 7.62895,7.73813 7.37949,8.13594 -0.42494,0.67763 -4.34618,3.80065 -6.93496,5.52326 -2.89524,1.92653 -7.48359,4.26935 -10.50069,5.36167 -3.05555,1.10624 -3.79211,1.25334 -3.94955,0.78877 z m -57.33647,-15.90726 c -4.43586,-5.15188 -7.66314,-10.64312 -10.13703,-17.24817 -0.80067,-2.13774 -0.91319,-2.66284 -0.62659,-2.92422 0.37533,-0.34232 20.17489,-5.69063 21.06681,-5.69063 0.41686,0 0.68634,0.39492 1.21867,1.78594 0.9155,2.3923 2.8614,5.79067 4.43119,7.73876 0.70489,0.87476 1.28161,1.73945 1.28161,1.92154 0,0.39893 -15.36228,15.80585 -15.76004,15.80585 -0.15324,0 -0.81682,-0.62508 -1.47462,-1.38907 z m 73.65538,-6.35165 c -4.25556,-4.2574 -7.73738,-7.88095 -7.73738,-8.05235 0,-0.17139 0.6513,-1.17738 1.44733,-2.23553 1.63926,-2.17904 2.81193,-4.24636 3.99892,-7.04974 0.44882,-1.06001 0.92507,-2.0362 1.05833,-2.1693 0.29903,-0.29869 20.97931,5.17887 21.52367,5.70094 0.32822,0.31478 0.2623,0.67662 -0.48945,2.687 -1.46224,3.91039 -3.84138,8.55951 -6.07443,11.87014 -2.41191,3.5758 -5.17797,6.98956 -5.66343,6.98956 -0.1794,0 -3.808,-3.48333 -8.06356,-7.74072 z m 20.55099,-17.24016 c -0.0606,-0.0605 -3.97978,-1.13812 -8.7092,-2.39467 -4.72943,-1.25655 -9.40594,-2.52275 -10.39224,-2.81377 l -1.79327,-0.52913 0.20577,-1.37567 c 0.26554,-1.77522 0.26635,-8.90852 10e-4,-10.6797 l -0.20456,-1.36652 0.86601,-0.28399 c 3.29194,-1.07949 20.72954,-5.5357 20.91929,-5.34595 0.1279,0.1279 0.48168,1.58565 0.78618,3.23944 0.77461,4.20712 0.82532,13.60615 0.0954,17.69125 -0.273,1.52797 -0.59747,3.04602 -0.72105,3.37344 -0.20014,0.53025 -0.75329,0.78502 -1.05359,0.48527 z m -106.70802,-2.46965 c -1.24458,-6.81917 -1.24458,-13.15687 0,-19.97604 0.37591,-2.05964 0.4852,-2.31516 0.99036,-2.31566 0.89257,-7.9e-4 20.64,5.32034 20.98448,5.65455 0.22435,0.21768 0.23817,0.69541 0.0507,1.75434 -0.3357,1.8966 -0.33813,7.93003 -0.004,9.78959 0.19097,1.06267 0.17834,1.53669 -0.0468,1.75728 -0.34201,0.33508 -20.08266,5.65124 -20.98448,5.65113 -0.50524,-7e-5 -0.61439,-0.25524 -0.99036,-2.31519 z m 13.59673,-22.56824 c -4.72943,-1.28414 -9.3431,-2.53424 -10.2526,-2.77802 -1.3438,-0.36018 -1.65365,-0.54445 -1.65365,-0.98343 0,-0.83175 2.27667,-6.38413 3.76847,-9.19062 2.27283,-4.27583 7.61127,-11.64167 8.43737,-11.64167 0.33084,0 15.49191,14.74663 15.68894,15.26007 0.0762,0.19844 -0.63347,1.40025 -1.57693,2.67068 -1.55054,2.08791 -3.39525,5.42374 -4.45968,8.06457 -0.26551,0.65871 -0.56008,0.98227 -0.87644,0.96269 -0.26209,-0.0162 -4.34605,-1.08014 -9.07548,-2.36427 z m 70.39354,0.31273 c -1.03964,-2.5791 -2.52607,-5.14599 -4.25088,-7.34076 -0.72586,-0.92364 -1.31974,-1.83149 -1.31974,-2.01744 0,-0.40944 15.36085,-15.81285 15.76916,-15.81285 0.4591,0 3.63675,3.91436 5.77166,7.10974 3.40601,5.09788 7.25057,13.72012 6.45045,14.46646 -0.36615,0.34154 -20.14522,5.67588 -21.04545,5.67588 -0.42217,0 -0.71491,-0.44297 -1.3752,-2.08103 z m -9.78412,-13.03445 c -1.95725,-1.55838 -5.24892,-3.48568 -7.63035,-4.46762 -1.12572,-0.46418 -2.14232,-0.93327 -2.2591,-1.04244 -0.11678,-0.10916 0.85869,-4.17487 2.16771,-9.03491 1.30902,-4.86003 2.58249,-9.65038 2.82992,-10.64521 0.24743,-0.99483 0.58666,-1.86127 0.75382,-1.92542 0.46203,-0.17729 5.62935,1.8388 8.82139,3.44177 4.54654,2.28316 11.74813,7.33278 12.60347,8.83731 0.19242,0.33846 -1.35525,1.98845 -7.66946,8.17656 -4.35079,4.26389 -7.98583,7.75253 -8.07786,7.75253 -0.092,0 -0.78483,-0.49166 -1.53954,-1.09257 z m -49.86769,-6.81882 c -5.28695,-5.2893 -7.59561,-7.7713 -7.48842,-8.05064 0.44018,-1.14709 7.21552,-6.02474 11.56336,-8.32461 3.07906,-1.62872 8.59004,-3.81784 9.33411,-3.70777 0.48449,0.0717 0.85794,1.23915 3.28428,10.26732 1.5057,5.60256 2.70557,10.40936 2.66639,10.6818 -0.0497,0.34525 -0.76857,0.79533 -2.37263,1.48542 -2.46049,1.05853 -5.42658,2.81028 -7.35856,4.3459 -0.65338,0.51934 -1.36733,0.94541 -1.58655,0.94682 -0.21922,0.001 -3.83812,-3.4385 -8.04198,-7.64424 z m 23.13983,0.24768 c -0.48802,-0.30162 -5.97,-21.14743 -5.64639,-21.47104 0.50574,-0.50574 5.94909,-1.29084 10.12942,-1.46098 5.54728,-0.22576 13.49557,0.5938 14.38503,1.48326 0.30788,0.30788 -5.20356,21.1613 -5.66881,21.44884 -0.15963,0.0987 -0.84663,0.0627 -1.52667,-0.08 -0.68004,-0.14264 -2.96284,-0.25935 -5.07289,-0.25935 -2.11005,0 -4.39285,0.11671 -5.07289,0.25935 -0.68003,0.14265 -1.36709,0.1786 -1.5268,0.0799 z"
         id="path1040"
         inkscape:connector-curvature="0" />
      <path
         style="fill:#55ddff;fill-opacity:1;stroke-width:0.26458335"
         d="m 166.74144,282.31394 c -2.73157,-0.33794 -5.8876,-1.00637 -6.19285,-1.31163 -0.29868,-0.29867 5.22696,-21.15975 5.6787,-21.43894 0.15964,-0.0987 0.84664,-0.0625 1.52667,0.0804 1.58096,0.33221 8.526,0.32878 10.14578,-0.005 0.68004,-0.14014 1.36973,-0.17241 1.53267,-0.0717 0.49366,0.3051 5.96933,21.13861 5.64191,21.46603 -0.15482,0.15481 -1.57484,0.51337 -3.15562,0.79679 -3.337,0.59831 -12.01626,0.87511 -15.17726,0.48405 z m -14.50746,-3.79796 c -3.94885,-1.61098 -8.0372,-3.86357 -11.46977,-6.31959 -2.88367,-2.06329 -5.24361,-4.09069 -5.24361,-4.50473 0,-0.17444 3.49503,-3.81069 7.76674,-8.08055 l 7.76674,-7.76339 2.35357,1.74769 c 2.12552,1.57834 5.45276,3.42164 8.10826,4.49199 0.75235,0.30325 0.98888,0.54709 0.97849,1.00873 -0.008,0.33485 -1.23565,5.13319 -2.72914,10.66298 -2.59301,9.60084 -2.7445,10.05736 -3.35974,10.12501 -0.35436,0.039 -2.23155,-0.5767 -4.17154,-1.36814 z m 36.35301,1.13112 c -0.43325,-1.27846 -5.44139,-20.31979 -5.44139,-20.68857 0,-0.25055 0.32742,-0.58927 0.72761,-0.75271 2.63038,-1.07425 6.34227,-3.08129 8.21911,-4.44412 1.20991,-0.87856 2.34177,-1.59738 2.51525,-1.59738 0.17348,0 3.76678,3.45291 7.98513,7.67314 6.59256,6.5955 7.62895,7.73813 7.37949,8.13594 -0.42494,0.67763 -4.34618,3.80065 -6.93496,5.52326 -2.89524,1.92653 -7.48359,4.26935 -10.50069,5.36167 -3.05555,1.10624 -3.79211,1.25334 -3.94955,0.78877 z m -57.33647,-15.90726 c -4.43586,-5.15188 -7.66314,-10.64312 -10.13703,-17.24817 -0.80067,-2.13774 -0.91319,-2.66284 -0.62659,-2.92422 0.37533,-0.34232 20.17489,-5.69063 21.06681,-5.69063 0.41686,0 0.68634,0.39492 1.21867,1.78594 0.9155,2.3923 2.8614,5.79067 4.43119,7.73876 0.70489,0.87476 1.28161,1.73945 1.28161,1.92154 0,0.39893 -15.36228,15.80585 -15.76004,15.80585 -0.15324,0 -0.81682,-0.62508 -1.47462,-1.38907 z m 73.72005,-6.29148 c -4.29113,-4.28208 -7.80205,-7.88937 -7.80205,-8.0162 0,-0.12684 0.70847,-1.17083 1.57439,-2.31999 1.45263,-1.92778 4.21294,-6.9836 4.572,-8.37412 0.0844,-0.32669 0.33274,-0.6628 0.55196,-0.74693 0.29341,-0.11259 16.88394,4.12755 20.88446,5.33756 0.66913,0.20239 0.58077,0.87063 -0.49634,3.75397 -1.16838,3.12764 -2.83976,6.50204 -4.7506,9.59115 -1.59858,2.58429 -4.63515,6.58637 -5.90309,7.78003 l -0.82868,0.78013 z m -86.2217,-19.76998 c -1.24458,-6.81917 -1.24458,-13.15687 0,-19.97604 0.37591,-2.05964 0.4852,-2.31516 0.99036,-2.31566 0.89257,-7.9e-4 20.64,5.32034 20.98448,5.65455 0.22435,0.21768 0.23817,0.69541 0.0507,1.75434 -0.3357,1.8966 -0.33813,7.93003 -0.004,9.78959 0.19097,1.06267 0.17834,1.53669 -0.0468,1.75728 -0.34201,0.33508 -20.08266,5.65124 -20.98448,5.65113 -0.50524,-7e-5 -0.61439,-0.25524 -0.99036,-2.31519 z m 96.27902,-0.71084 c -8.87261,-2.40195 -10.0477,-2.78052 -9.99917,-3.22137 0.0303,-0.27476 0.18858,-1.7105 0.35184,-3.19054 0.27589,-2.501 0.22268,-3.85675 -0.35017,-8.92255 -0.0502,-0.4434 1.11518,-0.81589 10.1298,-3.23797 5.60255,-1.50532 10.38495,-2.73837 10.62755,-2.74011 0.49348,-0.004 0.75367,0.95823 1.32332,4.89161 0.43293,2.98941 0.43705,11.7824 0.007,14.4198 -0.7118,4.36283 -0.83527,4.76412 -1.45919,4.74272 -0.3171,-0.0109 -5.10092,-1.24459 -10.63072,-2.74159 z M 138.6956,216.73531 c -2.90701,-0.86127 -7.24465,-2.04616 -11.77396,-3.21623 -1.74625,-0.45112 -3.44849,-0.9297 -3.78276,-1.06353 -0.33427,-0.13382 -0.87706,-0.24331 -1.2062,-0.24331 -0.32914,0 -0.80357,-0.14999 -1.05428,-0.33332 -0.48527,-0.35483 -0.3711,-1.0254 0.51314,-3.01396 0.2039,-0.45855 0.37073,-0.94971 0.37073,-1.09145 0,-0.693 2.62166,-5.84926 4.89479,-9.62703 1.32917,-2.20899 5.62364,-7.63008 6.04438,-7.63008 0.16994,0 3.81006,3.50259 8.08915,7.78353 l 7.78017,7.78353 -1.04932,1.27845 c -2.01957,2.46056 -3.6961,5.32143 -5.00112,8.53406 -0.32969,0.81161 -0.75957,1.50003 -0.95531,1.52984 -0.19573,0.0298 -1.48696,-0.28092 -2.86941,-0.6905 z"
         id="path1038"
         inkscape:connector-curvature="0" />
      <path
         style="fill:#ff5555;fill-opacity:1;stroke-width:0.26458335"
         d="m 204.97057,257.44836 c -4.29113,-4.28208 -7.80205,-7.88937 -7.80205,-8.0162 0,-0.12684 0.70847,-1.17083 1.57439,-2.31999 1.45263,-1.92778 4.21294,-6.9836 4.572,-8.37412 0.0844,-0.32669 0.33274,-0.6628 0.55196,-0.74693 0.29341,-0.11259 16.88394,4.12755 20.88446,5.33756 0.66913,0.20239 0.58077,0.87063 -0.49634,3.75397 -1.16838,3.12764 -2.83976,6.50204 -4.7506,9.59115 -1.59858,2.58429 -4.63515,6.58637 -5.90309,7.78003 l -0.82868,0.78013 z m 10.05732,-20.48082 c -8.87261,-2.40195 -10.0477,-2.78052 -9.99917,-3.22137 0.0303,-0.27476 0.18858,-1.7105 0.35184,-3.19054 0.27589,-2.501 0.22268,-3.85675 -0.35017,-8.92255 -0.0502,-0.4434 1.11518,-0.81589 10.1298,-3.23797 5.60255,-1.50532 10.38495,-2.73837 10.62755,-2.74011 0.49348,-0.004 0.75367,0.95823 1.32332,4.89161 0.43293,2.98941 0.43705,11.7824 0.007,14.4198 -0.7118,4.36283 -0.83527,4.76412 -1.45919,4.74272 -0.31711,-0.0109 -5.10093,-1.24459 -10.63072,-2.74159 z"
         id="path1036"
         inkscape:connector-curvature="0" />
    </g>
  </g>
</svg>
